<?xml version="1.0" standalone="no"?>
<!DOCTYPE svg PUBLIC "-//W3C//DTD SVG 20010904//EN"
 "http://www.w3.org/TR/2001/REC-SVG-20010904/DTD/svg10.dtd">
<svg version="1.0" xmlns="http://www.w3.org/2000/svg"
 width="612.000000pt" height="612.000000pt" viewBox="0 0 612.000000 612.000000"
 preserveAspectRatio="xMidYMid meet">
<metadata>
Created by potrace 1.14, written by Peter Selinger 2001-2017
</metadata>
<g transform="translate(0.000000,612.000000) scale(0.100000,-0.100000)"
fill="#000000" stroke="none">
<path d="M3052 4410 c-21 -20 -22 -29 -21 -184 0 -155 1 -165 22 -184 22 -20
77 -28 77 -10 0 5 4 7 9 3 24 -14 34 42 32 172 -2 150 -4 166 -26 199 -19 30
-63 32 -93 4z"/>
<path d="M2440 4218 c0 -5 -4 -7 -9 -3 -5 3 -18 -6 -29 -20 -24 -31 -21 -72 8
-96 10 -9 16 -19 13 -23 -4 -3 -1 -6 5 -6 15 0 54 -40 91 -92 49 -71 78 -99
105 -104 15 -2 26 0 26 6 0 6 4 9 10 5 14 -9 45 45 41 73 -1 14 -13 35 -24 47
-43 43 -142 158 -156 179 -13 22 -81 50 -81 34z"/>
<path d="M3684 4164 c-16 -8 -31 -19 -34 -23 -7 -11 -53 -70 -65 -84 -6 -7
-26 -32 -45 -57 -19 -25 -38 -47 -42 -48 -5 -2 -6 -8 -2 -13 3 -5 1 -9 -4 -9
-5 0 -8 -14 -7 -32 2 -40 42 -73 77 -65 30 8 60 39 161 167 51 64 73 101 68
115 -2 6 -4 15 -6 20 -11 45 -48 56 -101 29z"/>
<path d="M3055 3939 c-16 -5 -50 -11 -75 -13 -25 -2 -52 -6 -60 -9 -8 -3 -40
-13 -71 -21 -115 -32 -226 -135 -295 -272 -19 -39 -36 -78 -38 -87 -1 -9 -5
-20 -9 -23 -4 -4 -7 -22 -7 -41 0 -31 -2 -33 -20 -23 -11 6 -20 8 -20 4 0 -4
-9 3 -19 15 -14 16 -17 29 -12 44 5 12 4 34 -1 49 -12 34 -40 47 -113 53 -22
2 -40 4 -40 5 0 2 -36 9 -85 15 -72 9 -79 11 -86 18 -4 3 -14 2 -24 -3 -10 -5
-20 -7 -23 -4 -11 11 -36 -42 -33 -69 4 -31 28 -53 69 -62 26 -6 37 -32 20
-48 -3 -4 -8 -17 -9 -29 -17 -137 -23 -149 -69 -138 -5 1 -35 8 -66 16 -136
32 -155 34 -194 15 -26 -12 -102 -81 -89 -81 4 0 -35 -46 -65 -77 -7 -8 -21
-11 -30 -8 -9 3 -36 8 -62 11 -42 4 -47 2 -59 -23 -16 -33 -20 -48 -25 -88 -1
-16 -6 -37 -9 -45 -3 -8 -8 -31 -10 -50 -3 -19 -5 -35 -6 -35 -1 0 -3 -11 -6
-25 -2 -14 -10 -61 -19 -105 -17 -94 -23 -127 -31 -175 -3 -19 -9 -53 -13 -75
-13 -64 -12 -129 3 -147 13 -18 75 -49 110 -55 11 -2 25 -8 32 -14 6 -5 20
-11 30 -13 11 -2 73 -25 139 -51 210 -82 220 -86 240 -94 11 -5 31 -13 45 -19
14 -6 77 -31 140 -55 63 -25 124 -48 135 -53 11 -4 22 -8 25 -9 3 0 21 -8 40
-17 35 -16 68 -29 83 -33 4 -2 9 -4 12 -5 3 -1 8 -3 13 -5 4 -1 18 -6 32 -12
14 -6 50 -21 80 -32 30 -12 64 -25 75 -30 45 -19 70 -28 75 -27 3 0 17 -6 30
-15 14 -9 37 -19 53 -23 15 -3 27 -11 27 -16 0 -6 8 -10 18 -10 10 0 23 -5 30
-12 6 -6 20 -13 29 -15 46 -8 135 -15 203 -15 168 -1 193 3 260 35 36 17 67
32 70 32 3 0 19 8 35 17 17 8 86 37 155 62 69 26 143 55 165 65 22 10 67 28
100 41 33 13 79 31 102 42 24 10 47 18 53 18 6 0 18 4 28 10 14 8 57 27 82 35
3 1 14 5 25 10 11 5 76 30 145 57 69 27 139 55 155 62 47 20 100 41 105 41 6
0 65 23 107 41 17 8 34 14 38 14 17 0 95 44 96 54 6 41 5 106 -3 145 -5 25
-11 62 -14 81 -7 46 -23 134 -36 190 -5 25 -11 58 -14 73 -2 15 -8 54 -14 85
-7 31 -14 75 -17 97 -3 22 -12 52 -19 68 -14 26 -16 27 -84 22 l-69 -5 -52 62
c-88 106 -93 110 -146 110 -45 0 -76 -4 -133 -17 -14 -3 -49 -8 -79 -11 -46
-5 -53 -3 -48 10 4 9 2 16 -2 16 -13 0 -19 93 -8 108 5 6 17 12 27 12 10 0 23
7 30 15 7 8 15 13 19 11 12 -8 12 48 0 77 -6 15 -18 28 -25 28 -22 2 -54 1
-56 -1 -2 -1 -13 -3 -25 -6 -13 -2 -33 -6 -45 -8 -13 -3 -23 -5 -23 -6 0 -1
-16 -3 -35 -5 -31 -3 -85 -12 -115 -20 -34 -8 -89 -44 -68 -45 4 -1 -10 -10
-31 -20 -55 -28 -85 -15 -77 33 1 7 -32 87 -52 122 -6 11 -16 30 -22 42 -19
35 -68 87 -97 102 -16 8 -34 24 -42 36 -34 51 -146 102 -265 121 -20 3 -38 7
-41 9 -3 1 -18 -2 -35 -6z"/>
</g>
</svg>
